<?xml version="1.0" encoding="UTF-8"?>
<svg id="Capa_1" xmlns="http://www.w3.org/2000/svg" version="1.1" viewBox="0 0 2000 725">
  <!-- Generator: Adobe Illustrator 29.1.0, SVG Export Plug-In . SVG Version: 2.1.0 Build 142)  -->
  <defs>
    <style>
      .st0 {
        fill: #fff;
      }
    </style>
  </defs>
  <path class="st0" d="M1090.2,127.2h-69.9v291.1h69.9c45.3,0,68.2-24.1,68.2-71.9v-147.2c0-47.8-22.9-71.9-68.2-71.9ZM1112.7,348.4c0,18.7-7.9,28.3-23.3,28.3h-23.3v-207.9h23.3c15.4,0,23.3,9.5,23.3,28.3v151.4Z"/>
  <rect class="st0" x="1201.7" y="127.2" width="45.7" height="291.1"/>
  <path class="st0" d="M1358.1,123c-43.7,0-67.4,26.2-67.4,71.5v156.4c0,45.3,23.7,71.5,67.4,71.5s67.4-26.2,67.4-71.5v-39.1h-43.3v42.4c0,17.9-7.5,26.6-22.9,26.6s-22.9-8.7-22.9-26.6v-162.6c0-17.9,7.5-27.1,22.9-27.1s22.9,9.1,22.9,27.1v33.7h43.3v-30.8c0-45.3-23.7-71.5-67.4-71.5Z"/>
  <polygon class="st0" points="1494.8 418.3 1510.7 127.2 1464.9 127.2 1480.8 418.3 1494.8 418.3"/>
  <path class="st0" d="M1623.4,123c-44.9,0-69.5,26.6-69.5,73.2v153.1c0,46.6,24.6,73.2,69.5,73.2s69.5-26.6,69.5-73.2v-153.1c0-46.6-24.5-73.2-69.5-73.2ZM1647.1,352.2c0,19.1-7.9,28.7-23.7,28.7s-23.7-9.6-23.7-28.7v-158.9c0-19.1,7.9-28.7,23.7-28.7s23.7,9.6,23.7,28.7v158.9Z"/>
  <path class="st0" d="M1092.2,484l-16.4,101h14.7l2.7-19.8h18.3l2.7,19.8h15.9l-16.5-101h-21.5ZM1095.2,551.5l7.1-50.9,7.2,50.9h-14.3Z"/>
  <path class="st0" d="M1241,562.2c0,6.5-2.7,9.8-8.1,9.8s-8.1-3.3-8.1-9.8v-78.2h-15.9v77.1c0,16.3,8.2,25.4,23.7,25.4s23.7-9.1,23.7-25.4v-77.1h-15.3v78.2h0Z"/>
  <polygon class="st0" points="1355.6 484 1339.8 484 1339.8 585 1381.8 585 1381.8 570.6 1355.6 570.6 1355.6 484"/>
  <path class="st0" d="M1474.3,484l-16.4,101h14.7l2.7-19.8h18.3l2.7,19.8h15.9l-16.5-101h-21.5ZM1477.3,551.5l7.1-50.9,7.2,50.9h-14.3Z"/>
  <path class="st0" d="M1639.1,555c0-12-3.5-19.2-10.5-21.4v-.3c6.9-2.7,10.4-9.4,10.4-19.9v-6.2c0-15.7-7.2-23.2-23.5-23.2h-23.5v101h15.9v-43.3h5.5c7.4,0,10,3.2,10,12.4v18.5c0,5.3.4,9.5,1.4,12.4h16.2c-1.2-2.7-1.7-6.8-1.7-12.3v-17.7h0ZM1623.1,516.6c0,7.7-3.2,10.7-9.5,10.7h-5.8v-28.9h7.2c5.3,0,8.1,3.5,8.1,10.4v7.8h0Z"/>
  <polygon class="st0" points="684.5 172.1 764.9 172.1 764.9 547.3 197.8 547.3 197.8 172.1 278.1 172.1 278.1 126.8 152.4 126.8 152.4 592.6 810.2 592.6 810.2 126.8 684.5 126.8 684.5 172.1"/>
  <polygon class="st0" points="458.6 209.4 504 209.4 504 172.1 544.1 172.1 544.1 126.8 418.5 126.8 418.5 172.1 458.6 172.1 458.6 209.4"/>
  <rect class="st0" x="278.1" y="222.3" width="180.5" height="79.9"/>
  <rect class="st0" x="504.2" y="222.3" width="79.9" height="79.9"/>
  <rect class="st0" x="504.2" y="330.8" width="119.1" height="79.9"/>
  <rect class="st0" x="504" y="439.3" width="180.5" height="79.9"/>
  <rect class="st0" x="278.1" y="439.3" width="180.5" height="79.9"/>
  <rect class="st0" x="341.3" y="330.8" width="117.3" height="79.9"/>
  <polygon class="st0" points="904.3 245.7 967.1 245.7 967.1 287.3 904.3 287.3 904.3 376.7 983.3 376.7 983.3 168.8 904.3 168.8 904.3 245.7"/>
  <polygon class="st0" points="1776.8 418.3 1833.4 418.3 1776.8 205.8 1776.8 418.3"/>
  <polygon class="st0" points="1792.7 127.2 1838.8 301.4 1838.8 127.2 1792.7 127.2"/>
</svg>