<svg xmlns="http://www.w3.org/2000/svg" version="1.1" xmlns:xlink="http://www.w3.org/1999/xlink" width="512" height="512" x="0" y="0" viewBox="0 0 64 64" style="enable-background:new 0 0 512 512" xml:space="preserve" class=""><g><path d="M42.55 10.06c-4.11.34-7.66 2.55-10.55 5.37-2.89-2.82-6.44-5.03-10.55-5.37-3.55-.28-7.22.97-9.75 3.52-2.8 2.82-3.88 6.5-3.65 10.41.76 8.35 6.52 14.59 12.51 19.92 3.8 3.37 7.74 6.58 11.44 10.07 3.7-3.49 7.64-6.7 11.44-10.07 5.99-5.33 11.75-11.57 12.51-19.92.23-3.91-.85-7.59-3.65-10.41-2.53-2.551-6.2-3.801-9.75-3.52zm-23.71 6.669c-3.09.83-4.53 3.76-4.31 6.77.15 1.93-2.85 2.16-2.99.23a9.024 9.024 0 0 1 6.52-9.9c1.87-.499 2.65 2.391.78 2.9z" fill="#ffffff" opacity="1" data-original="#000000"></path></g></svg>