<?xml version="1.0" encoding="UTF-8"?>
<svg id="Capa_1" xmlns="http://www.w3.org/2000/svg" version="1.1" viewBox="0 0 512 512">
  <!-- Generator: Adobe Illustrator 29.1.0, SVG Export Plug-In . SVG Version: 2.1.0 Build 142)  -->
  <defs>
    <style>
      .st0 {
        fill: #fff;
      }
    </style>
  </defs>
  <path class="st0" d="M313.8,324.6c.2-.7,0-1.4-.5-1.8l-16.7-15.5c-1.1-1-1.8-2.5-1.8-4.1v-20.7c.1-1-.7-1.8-1.7-1.8-.3,0-.6,0-.8.2l-16.1,8.2c-1.6.8-3.5.8-5.1,0l-20.5-11.2c-.3-.2-.6-.2-.9-.2-.4,0-.8.1-1.1.4-.6.4-.8,1.2-.6,1.9l5.6,21.8c.5,1.9,0,3.8-1.4,5.2l-18,18.4c-.7.7-.7,1.9,0,2.6.3.3.7.5,1.1.5l27.4,2.9c1.7.2,3.3,1.2,4.2,2.7l13.4,23.2c.5.9,1.6,1.2,2.5.7.4-.2.7-.6.8-1.1l6.8-23.1c0-.3.2-.6.4-.9,0,0,0,0,0,0,.7-1.5,2.1-2.5,3.7-2.9l18-3.8c.7-.1,1.2-.6,1.4-1.3h0ZM320.8,133.3l27.4,2.9c1.7.2,3.3,1.2,4.2,2.7l13.4,23.2c.5.9,1.6,1.2,2.5.7.4-.2.7-.6.8-1.1l6.8-23.2c.6-1.9,2.2-3.4,4.1-3.8l18-3.8c1-.2,1.6-1.2,1.4-2.2,0-.4-.3-.7-.5-1l-16.7-15.5c-1.1-1-1.8-2.5-1.8-4.1v-20.7c.1-1-.7-1.8-1.7-1.8-.3,0-.6,0-.8.2l-16.1,8.2c-1.6.8-3.5.8-5.1,0l-20.5-11.2c-.3-.2-.6-.2-.9-.2-.4,0-.8.1-1.1.4-.6.4-.8,1.2-.6,1.9l5.6,21.8c.5,1.9,0,3.8-1.4,5.2l-18,18.4c-.7.7-.7,1.9,0,2.6.3.3.7.5,1.1.5h0ZM231.5,184.2s0,0,0,0h.3c0,0,0,0,0,0l44.9-10.7c-.4-2.7-1.7-5.1-3.7-7l-43.1-39.1c-2.9-2.6-4.7-6.3-5-10.2l-3.2-39.8c-.3-3.9-2.5-7.4-5.9-9.3-3.4-2-7.6-2.2-11.2-.5l-26.9,12.5c-4.6,2.1-10,1.9-14.4-.6l-57.8-32.6c-5.2-2.9-11.7-1.6-15.5,3l-12.2,15.5c-2.4,3-3.1,7-2,10.7l17.8,58.8c.6,1.8.8,3.8.6,5.7l18.4-18.5c3.1-3.1,4.2-7.6,2.9-11.7l-12.3-40.6c-.3-1,.3-2,1.2-2.3,1-.3,2,.3,2.3,1.2l12.3,40.6c1.6,5.4.2,11.3-3.9,15.4l-25.4,25.5s0,0,0,0l-32.9,33.1c-.3.3-.6.7-.9,1l-8,10.2c-2.7,3.4-3.3,7.9-1.6,11.9,1.7,4.1,5.5,6.8,9.9,7.2l66.9,6.5c4.9.5,9.2,3.2,11.8,7.3l38.3,61.4c3.6,5.7,11.1,7.4,16.7,3.8,1.2-.7,2.2-1.6,3-2.7l9.7-12.3c1.2-1.5,2-3.2,2.3-5l6.9-35.2s0,0,0,0l8-40.9c1.2-6,5.8-10.7,11.7-12.1h0ZM185.3,242.8c-.9.5-2,.3-2.5-.6,0,0,0,0,0,0l-27-43.4c-2-3.2-5.3-5.2-9.1-5.6l-50.1-4.8c-1,0-1.7-1-1.6-2,0-1,1-1.7,2-1.6l50.1,4.8c4.9.5,9.2,3.2,11.8,7.3l27,43.4c.5.9.3,2-.6,2.5,0,0,0,0,0,0ZM140.7,320.2c-1.1-1-1.8-2.5-1.8-4.1v-20.7c.1-1-.7-1.8-1.7-1.8-.3,0-.6,0-.8.2l-16.2,8.2c-1.6.8-3.5.8-5.1,0l-20.5-11.2c-.3-.2-.6-.2-.9-.2-.4,0-.8.1-1.1.4-.6.4-.8,1.2-.6,1.9l5.6,21.8c.5,1.9,0,3.8-1.4,5.2l-18,18.4c-.7.7-.7,1.9,0,2.6.3.3.7.5,1.1.5l27.4,2.9c1.7.2,3.3,1.2,4.2,2.7l13.4,23.2c.5.9,1.6,1.2,2.5.7.4-.2.7-.6.8-1.1l6.8-23.1c.6-1.9,2.2-3.4,4.1-3.8l18-3.8c1-.2,1.6-1.2,1.4-2.2,0-.4-.3-.7-.5-1l-16.7-15.5Z"/>
  <path class="st0" d="M231.8,187.9c-4.3,1.2-7.5,4.8-8.4,9.1l-7.9,40.1,30.9,37.7c1.7-1.2,3.9-1.3,5.7-.3l20.5,11.2c.5.3,1.2.3,1.7,0l16.1-8.2c2.7-1.4,6-.3,7.4,2.4.4.8.6,1.6.6,2.5v20.7c0,.5.1,1,.5,1.4l16.7,15.5c2.2,2.1,2.4,5.5.3,7.8-.8.8-1.8,1.4-2.9,1.6l-18,3.8c-.2,0-.4.1-.5.2l107.7,131.2c24.2,4.5,42,1.2,52.7-9.6,15.4-15.6,11.5-42.3,10.8-46.5l-234-220.8ZM444.2,416.7c-15,6.7-26.3,16.7-33.8,29.8-.5.9-1.6,1.2-2.5.7s-1.2-1.6-.7-2.5h0c7.8-13.8,19.8-24.4,35.5-31.4.9-.4,2,0,2.4,1,.4.9,0,2-.9,2.4h0ZM253.7,203.6l.9-.2c2.6-.6,5-2.1,6.7-4.3l13.2-16.7c1.2-1.5,2-3.4,2.3-5.3l-40.7,9.7,17.7,16.7Z"/>
</svg>