<?xml version="1.0" encoding="UTF-8"?>
<svg id="Capa_1" xmlns="http://www.w3.org/2000/svg" version="1.1" viewBox="0 0 512 512">
  <!-- Generator: Adobe Illustrator 29.1.0, SVG Export Plug-In . SVG Version: 2.1.0 Build 142)  -->
  <defs>
    <style>
      .st0 {
        fill: #fff;
      }
    </style>
  </defs>
  <path class="st0" d="M155.2,105.5c-8.5,0-16,5.5-18.5,13.7L54.1,389.7c-3.1,10.2,2.6,21,12.8,24.1,1.8.6,3.8.8,5.7.8h31.7c8.7,0,16.3-5.8,18.6-14.1l18.1-65.4h88.5l19.7,65.8c2.4,8.2,10,13.8,18.5,13.8h34.7c6.1,0,11.9-2.9,15.5-7.8,3.6-5,4.7-11.3,2.9-17.2L236.9,119.1c-2.5-8.1-10-13.6-18.4-13.6h-63.2ZM151,282.6s18-68.6,27.5-105c.7-3,3.7-4.8,6.7-4,2,.5,3.5,2,4,3.9l30.2,105.1h-68.3ZM398.9,160.5v-51.3c0-6.5-5.3-11.8-11.8-11.8,0,0,0,0,0,0h-20.6c-6.5,0-11.8,5.3-11.8,11.8h0v51.3h-48c-6.5,0-11.8,5.3-11.8,11.8h0v19c0,6.5,5.3,11.8,11.8,11.8h48v51.3c0,6.5,5.3,11.8,11.8,11.8h20.6c6.5,0,11.8-5.3,11.8-11.8h0v-51.3h48c6.5,0,11.8-5.3,11.8-11.8v-19c0-6.5-5.3-11.8-11.8-11.8h-48Z"/>
</svg>