<svg xmlns="http://www.w3.org/2000/svg" version="1.1" xmlns:xlink="http://www.w3.org/1999/xlink" width="512" height="512" x="0" y="0" viewBox="0 0 64 64" style="enable-background:new 0 0 512 512" xml:space="preserve"><g><path d="M58.1 9.14c-.231-1.453-24.07-3.242-34.99 7.9-1.708 1.454-1.841 4.492-2.25 6.52l-.99-.23a3.025 3.025 0 0 0-3.21 1.3c-3.96 6.2-3.32 15.71-2.92 19.22 8.91-16.634 28.56-32.006 28.84-28.77a1.009 1.009 0 0 1-.39 1.36c-5.142 2.497-23.021 17.046-31.17 37.387H6.817a1 1 0 0 0 0 2h26.61a1 1 0 0 0 0-2H13.225a83.07 83.07 0 0 1 4.245-8.377l10.88-2.6a3.017 3.017 0 0 0 2.19-3.75h5.76a.999.999 0 0 0 .53-.16c.27-.16 6.5-4.14 8.65-10.96a3.97 3.97 0 0 0-.41-3.27l1.07-.33a6.017 6.017 0 0 0 3.1-2.21l8.75-12.05a.986.986 0 0 0 .11-.98z" fill="#ffffff" opacity="1" data-original="#000000"></path></g></svg>